<svg width="83" height="42" viewBox="0 0 83 42" fill="none" xmlns="http://www.w3.org/2000/svg">
<rect width="83" height="42" fill="white"/>
<rect x="0.32" y="0.32" width="82.36" height="41.36" stroke="#001F3F" stroke-opacity="0.32" stroke-width="0.64"/>
<g clip-path="url(#clip0_153_6506)">
<path d="M32.4537 33.2045V31.661C32.4537 31.0692 32.0934 30.6835 31.476 30.6835C31.1673 30.6835 30.8329 30.7864 30.6013 31.1208C30.4213 30.8378 30.1641 30.6835 29.7782 30.6835C29.5208 30.6835 29.2637 30.7606 29.0578 31.0436V30.7349H28.5176V33.2045H29.0578V31.841C29.0578 31.4038 29.2894 31.1979 29.6496 31.1979C30.0096 31.1979 30.1898 31.4295 30.1898 31.841V33.2045H30.7301V31.841C30.7301 31.4038 30.9872 31.1979 31.3216 31.1979C31.6819 31.1979 31.8619 31.4295 31.8619 31.841V33.2045H32.4537ZM40.4542 30.7349H39.5796V29.9889H39.0394V30.7349H38.5506V31.2236H39.0393V32.3556C39.0393 32.9216 39.2708 33.256 39.8883 33.256C40.1198 33.256 40.377 33.1789 40.5572 33.076L40.4027 32.6128C40.2484 32.7157 40.0684 32.7415 39.9397 32.7415C39.6825 32.7415 39.5796 32.5872 39.5796 32.3298V31.2236H40.4542V30.7349ZM45.0334 30.6833C44.7247 30.6833 44.5189 30.8378 44.3903 31.0436V30.7349H43.85V33.2045H44.3903V31.8154C44.3903 31.4038 44.5703 31.1723 44.9047 31.1723C45.0076 31.1723 45.1363 31.198 45.2392 31.2237L45.3935 30.7092C45.2906 30.6835 45.1363 30.6835 45.0334 30.6835M38.1132 30.9408C37.8559 30.7607 37.4958 30.6836 37.1099 30.6836C36.4925 30.6836 36.081 30.9923 36.081 31.481C36.081 31.8927 36.3896 32.1242 36.9299 32.2014L37.1871 32.2272C37.4701 32.2785 37.6245 32.3557 37.6245 32.4844C37.6245 32.6644 37.4187 32.7931 37.0584 32.7931C36.6983 32.7931 36.4153 32.6644 36.2352 32.5358L35.978 32.9474C36.261 33.1532 36.6469 33.2561 37.0327 33.2561C37.753 33.2561 38.1647 32.9217 38.1647 32.4586C38.1647 32.0213 37.8302 31.7897 37.3157 31.7126L37.0584 31.6868C36.8269 31.661 36.6469 31.6097 36.6469 31.4554C36.6469 31.2753 36.8269 31.1724 37.1099 31.1724C37.4187 31.1724 37.7273 31.3009 37.8817 31.3781L38.1132 30.9408ZM52.4681 30.6836C52.1593 30.6836 51.9536 30.8379 51.8249 31.0437V30.735H51.2846V33.2046H51.8249V31.8155C51.8249 31.4039 52.005 31.1724 52.3393 31.1724C52.4423 31.1724 52.571 31.1981 52.6739 31.2238L52.8282 30.7094C52.7254 30.6836 52.571 30.6836 52.4681 30.6836ZM45.5736 31.9698C45.5736 32.7158 46.0881 33.2561 46.8857 33.2561C47.2458 33.2561 47.503 33.179 47.7602 32.9732L47.503 32.5358C47.2972 32.6902 47.0914 32.7673 46.8599 32.7673C46.4225 32.7673 46.1139 32.4586 46.1139 31.9698C46.1139 31.5068 46.4225 31.198 46.8599 31.1724C47.0914 31.1724 47.2972 31.2495 47.503 31.4039L47.7602 30.9666C47.503 30.7607 47.2458 30.6836 46.8857 30.6836C46.0881 30.6836 45.5736 31.2238 45.5736 31.9698ZM50.5644 31.9698V30.735H50.0242V31.0437C49.8441 30.8123 49.5868 30.6836 49.2524 30.6836C48.5578 30.6836 48.0176 31.2238 48.0176 31.9698C48.0176 32.7158 48.5578 33.2561 49.2524 33.2561C49.6125 33.2561 49.8698 33.1275 50.0242 32.896V33.2046H50.5644V31.9698ZM48.5835 31.9698C48.5835 31.5325 48.8665 31.1724 49.3295 31.1724C49.7668 31.1724 50.0756 31.5068 50.0756 31.9698C50.0756 32.4072 49.7668 32.7673 49.3295 32.7673C48.8665 32.7415 48.5835 32.4072 48.5835 31.9698ZM42.1264 30.6836C41.4061 30.6836 40.8915 31.198 40.8915 31.9698C40.8915 32.7416 41.406 33.2561 42.1521 33.2561C42.5122 33.2561 42.8725 33.1532 43.1555 32.9217L42.8981 32.5358C42.6923 32.6902 42.4351 32.7931 42.1779 32.7931C41.8434 32.7931 41.509 32.6387 41.4318 32.2013H43.2584V31.9956C43.2841 31.198 42.8211 30.6836 42.1264 30.6836ZM42.1263 31.1466C42.4607 31.1466 42.6923 31.3525 42.7437 31.7384H41.4574C41.5089 31.4039 41.7404 31.1466 42.1263 31.1466ZM55.5293 31.9698V29.7574H54.9891V31.0437C54.8089 30.8123 54.5517 30.6836 54.2173 30.6836C53.5227 30.6836 52.9825 31.2238 52.9825 31.9698C52.9825 32.7158 53.5227 33.2561 54.2173 33.2561C54.5775 33.2561 54.8347 33.1275 54.9891 32.896V33.2046H55.5293V31.9698ZM53.5485 31.9698C53.5485 31.5325 53.8314 31.1724 54.2945 31.1724C54.7318 31.1724 55.0405 31.5068 55.0405 31.9698C55.0405 32.4072 54.7318 32.7673 54.2945 32.7673C53.8314 32.7415 53.5485 32.4072 53.5485 31.9698ZM35.4891 31.9698V30.735H34.9488V31.0437C34.7687 30.8123 34.5115 30.6836 34.177 30.6836C33.4825 30.6836 32.9422 31.2238 32.9422 31.9698C32.9422 32.7158 33.4825 33.2561 34.177 33.2561C34.5373 33.2561 34.7945 33.1275 34.9488 32.896V33.2046H35.4891V31.9698ZM33.4825 31.9698C33.4825 31.5325 33.7655 31.1724 34.2285 31.1724C34.6658 31.1724 34.9746 31.5068 34.9746 31.9698C34.9746 32.4072 34.6658 32.7673 34.2285 32.7673C33.7655 32.7415 33.4825 32.4072 33.4825 31.9698Z" fill="black"/>
<path d="M37.9331 11.9808H46.0366V26.5415H37.9331V11.9808Z" fill="#FF5F00"/>
<path d="M38.4479 19.2612C38.4479 16.3028 39.8371 13.6787 41.9722 11.9808C40.4031 10.746 38.4223 10 36.2613 10C31.1418 10 27 14.1418 27 19.2612C27 24.3805 31.1418 28.5224 36.2612 28.5224C38.4221 28.5224 40.403 27.7764 41.9722 26.5415C39.8371 24.8693 38.4479 22.2196 38.4479 19.2612Z" fill="#EB001B"/>
<path d="M56.9698 19.2612C56.9698 24.3805 52.828 28.5224 47.7086 28.5224C45.5476 28.5224 43.5668 27.7764 41.9976 26.5415C44.1585 24.8437 45.522 22.2196 45.522 19.2612C45.522 16.3028 44.1327 13.6787 41.9976 11.9808C43.5667 10.746 45.5476 10 47.7086 10C52.828 10 56.9698 14.1675 56.9698 19.2612Z" fill="#F79E1B"/>
</g>
<defs>
<clipPath id="clip0_153_6506">
<rect width="30" height="23.3203" fill="white" transform="translate(27 10)"/>
</clipPath>
</defs>
</svg>
