<svg width="83" height="42" viewBox="0 0 83 42" fill="none" xmlns="http://www.w3.org/2000/svg">
<rect width="83" height="42" fill="white"/>
<rect x="0.32" y="0.32" width="82.36" height="41.36" stroke="#001F3F" stroke-opacity="0.32" stroke-width="0.64"/>
<g clip-path="url(#clip0_153_6512)">
<path d="M48.8144 10.9284C47.6714 9.62557 45.6052 9.06702 42.9619 9.06702H35.2903C35.0288 9.06703 34.7758 9.16033 34.5769 9.33015C34.378 9.49998 34.2463 9.73518 34.2053 9.99348L31.011 30.2525C30.9475 30.652 31.2568 31.0137 31.6617 31.0137H36.3979L37.5873 23.4692L37.5504 23.7055C37.6352 23.1722 38.0913 22.7789 38.6313 22.7789H40.882C45.3033 22.7789 48.7652 20.983 49.7765 15.7881C49.8065 15.6344 49.8326 15.4849 49.855 15.3388C49.7274 15.2712 49.7274 15.2712 49.855 15.3388C50.1562 13.4187 49.853 12.1117 48.8144 10.9284Z" fill="#27346A"/>
<path d="M39.3996 14.6471C39.5291 14.5855 39.6707 14.5535 39.8141 14.5536H45.8284C46.5406 14.5536 47.2049 14.5999 47.812 14.6976C47.9818 14.7247 48.1508 14.7571 48.3187 14.7946C48.5566 14.8471 48.7918 14.9114 49.0233 14.9871C49.3217 15.0868 49.5997 15.2029 49.8551 15.3388C50.1562 13.418 49.853 12.1117 48.8144 10.9284C47.6707 9.62557 45.6052 9.06702 42.9619 9.06702H35.2896C34.7495 9.06702 34.2899 9.46027 34.2053 9.99348L31.011 30.2517C30.9475 30.6519 31.2568 31.0132 31.6611 31.0132H36.3979L38.8656 15.3641C38.8899 15.2102 38.9512 15.0646 39.0442 14.9397C39.1372 14.8148 39.2592 14.7144 39.3996 14.6471Z" fill="#27346A"/>
<path d="M49.7769 15.7883C48.7657 20.9825 45.3038 22.7791 40.8824 22.7791H38.6311C38.091 22.7791 37.6348 23.1724 37.5509 23.7057L36.0712 33.0864C36.0159 33.436 36.2862 33.7528 36.64 33.7528H40.6324C40.8611 33.7527 41.0823 33.6711 41.2562 33.5225C41.43 33.3739 41.5452 33.1682 41.581 32.9423L41.6198 32.7389L42.3723 27.9699L42.4208 27.7063C42.4565 27.4805 42.5717 27.2748 42.7455 27.1262C42.9194 26.9776 43.1405 26.896 43.3692 26.8959H43.9667C47.8343 26.8959 50.8626 25.3247 51.7476 20.7805C52.117 18.8814 51.9258 17.2959 50.9487 16.1823C50.6523 15.845 50.2842 15.5664 49.8554 15.339C49.8322 15.4858 49.807 15.6346 49.7769 15.7883Z" fill="#2790C3"/>
<path d="M48.7971 14.9168C48.6394 14.8707 48.4802 14.83 48.3198 14.7946C48.1519 14.7576 47.9829 14.7255 47.8131 14.6983C47.2054 14.5999 46.5416 14.5535 45.8288 14.5535H39.8152C39.6716 14.5531 39.5299 14.5854 39.4007 14.6477C39.2601 14.7148 39.138 14.8152 39.0449 14.9401C38.9519 15.065 38.8907 15.2108 38.8666 15.3647L37.5884 23.4692L37.5515 23.7055C37.6356 23.1722 38.0917 22.7788 38.6319 22.7788H40.8831C45.3045 22.7788 48.7663 20.983 49.7776 15.788C49.8077 15.6344 49.833 15.4855 49.8562 15.3388C49.6001 15.2036 49.3229 15.0868 49.0244 14.9877C48.9491 14.9628 48.8733 14.9391 48.7972 14.9168" fill="#1F264F"/>
</g>
<defs>
<clipPath id="clip0_153_6512">
<rect width="21" height="24.7734" fill="white" transform="translate(31 9)"/>
</clipPath>
</defs>
</svg>
