<svg width="30" height="24" viewBox="0 0 30 24" fill="none" xmlns="http://www.w3.org/2000/svg">
<g clip-path="url(#clip0_153_6507)">
<path d="M5.45367 23.2045V21.661C5.45367 21.0692 5.09344 20.6835 4.47598 20.6835C4.1673 20.6835 3.83285 20.7864 3.60129 21.1208C3.42129 20.8378 3.16406 20.6835 2.77816 20.6835C2.52082 20.6835 2.26371 20.7606 2.05781 21.0436V20.7349H1.51758V23.2045H2.05781V21.841C2.05781 21.4038 2.28938 21.1979 2.64961 21.1979C3.00961 21.1979 3.18984 21.4295 3.18984 21.841V23.2045H3.73008V21.841C3.73008 21.4038 3.98719 21.1979 4.32164 21.1979C4.68188 21.1979 4.86188 21.4295 4.86188 21.841V23.2045H5.45367ZM13.4542 20.7349H12.5796V19.9889H12.0394V20.7349H11.5506V21.2236H12.0393V22.3556C12.0393 22.9216 12.2708 23.256 12.8883 23.256C13.1198 23.256 13.377 23.1789 13.5572 23.076L13.4027 22.6128C13.2484 22.7157 13.0684 22.7415 12.9397 22.7415C12.6825 22.7415 12.5796 22.5872 12.5796 22.3298V21.2236H13.4542V20.7349ZM18.0334 20.6833C17.7247 20.6833 17.5189 20.8378 17.3903 21.0436V20.7349H16.85V23.2045H17.3903V21.8154C17.3903 21.4038 17.5703 21.1723 17.9047 21.1723C18.0076 21.1723 18.1363 21.198 18.2392 21.2237L18.3935 20.7092C18.2906 20.6835 18.1363 20.6835 18.0334 20.6835M11.1132 20.9408C10.8559 20.7607 10.4958 20.6836 10.1099 20.6836C9.49254 20.6836 9.08098 20.9923 9.08098 21.481C9.08098 21.8927 9.38965 22.1242 9.92988 22.2014L10.1871 22.2272C10.4701 22.2785 10.6245 22.3557 10.6245 22.4844C10.6245 22.6644 10.4187 22.7931 10.0584 22.7931C9.69832 22.7931 9.41531 22.6644 9.23519 22.5358L8.97797 22.9474C9.26098 23.1532 9.64688 23.2561 10.0327 23.2561C10.753 23.2561 11.1647 22.9217 11.1647 22.4586C11.1647 22.0213 10.8302 21.7897 10.3157 21.7126L10.0584 21.6868C9.82688 21.661 9.64687 21.6097 9.64687 21.4554C9.64687 21.2753 9.82687 21.1724 10.1099 21.1724C10.4187 21.1724 10.7273 21.3009 10.8817 21.3781L11.1132 20.9408ZM25.4681 20.6836C25.1593 20.6836 24.9536 20.8379 24.8249 21.0437V20.735H24.2846V23.2046H24.8249V21.8155C24.8249 21.4039 25.005 21.1724 25.3393 21.1724C25.4423 21.1724 25.571 21.1981 25.6739 21.2238L25.8282 20.7094C25.7254 20.6836 25.571 20.6836 25.4681 20.6836ZM18.5736 21.9698C18.5736 22.7158 19.0881 23.2561 19.8857 23.2561C20.2458 23.2561 20.503 23.179 20.7602 22.9732L20.503 22.5358C20.2972 22.6902 20.0914 22.7673 19.8599 22.7673C19.4225 22.7673 19.1139 22.4586 19.1139 21.9698C19.1139 21.5068 19.4225 21.198 19.8599 21.1724C20.0914 21.1724 20.2972 21.2495 20.503 21.4039L20.7602 20.9666C20.503 20.7607 20.2458 20.6836 19.8857 20.6836C19.0881 20.6836 18.5736 21.2238 18.5736 21.9698ZM23.5644 21.9698V20.735H23.0242V21.0437C22.8441 20.8123 22.5868 20.6836 22.2524 20.6836C21.5578 20.6836 21.0176 21.2238 21.0176 21.9698C21.0176 22.7158 21.5578 23.2561 22.2524 23.2561C22.6125 23.2561 22.8698 23.1275 23.0242 22.896V23.2046H23.5644V21.9698ZM21.5835 21.9698C21.5835 21.5325 21.8665 21.1724 22.3295 21.1724C22.7668 21.1724 23.0756 21.5068 23.0756 21.9698C23.0756 22.4072 22.7668 22.7673 22.3295 22.7673C21.8665 22.7415 21.5835 22.4072 21.5835 21.9698ZM15.1264 20.6836C14.4061 20.6836 13.8915 21.198 13.8915 21.9698C13.8915 22.7416 14.406 23.2561 15.1521 23.2561C15.5122 23.2561 15.8725 23.1532 16.1555 22.9217L15.8981 22.5358C15.6923 22.6902 15.4351 22.7931 15.1779 22.7931C14.8434 22.7931 14.509 22.6387 14.4318 22.2013H16.2584V21.9956C16.2841 21.198 15.8211 20.6836 15.1264 20.6836ZM15.1263 21.1466C15.4607 21.1466 15.6923 21.3525 15.7437 21.7384H14.4574C14.5089 21.4039 14.7404 21.1466 15.1263 21.1466ZM28.5293 21.9698V19.7574H27.9891V21.0437C27.8089 20.8123 27.5517 20.6836 27.2173 20.6836C26.5227 20.6836 25.9825 21.2238 25.9825 21.9698C25.9825 22.7158 26.5227 23.2561 27.2173 23.2561C27.5775 23.2561 27.8347 23.1275 27.9891 22.896V23.2046H28.5293V21.9698ZM26.5485 21.9698C26.5485 21.5325 26.8314 21.1724 27.2945 21.1724C27.7318 21.1724 28.0405 21.5068 28.0405 21.9698C28.0405 22.4072 27.7318 22.7673 27.2945 22.7673C26.8314 22.7415 26.5485 22.4072 26.5485 21.9698ZM8.48906 21.9698V20.735H7.94883V21.0437C7.76871 20.8123 7.51148 20.6836 7.17703 20.6836C6.48246 20.6836 5.94223 21.2238 5.94223 21.9698C5.94223 22.7158 6.48246 23.2561 7.17703 23.2561C7.53727 23.2561 7.79449 23.1275 7.94883 22.896V23.2046H8.48906V21.9698ZM6.48246 21.9698C6.48246 21.5325 6.76547 21.1724 7.22848 21.1724C7.66582 21.1724 7.97461 21.5068 7.97461 21.9698C7.97461 22.4072 7.66582 22.7673 7.22848 22.7673C6.76547 22.7415 6.48246 22.4072 6.48246 21.9698Z" fill="black"/>
<path d="M10.9331 1.98083H19.0366V16.5415H10.9331V1.98083Z" fill="#FF5F00"/>
<path d="M11.4479 9.26121C11.4479 6.30281 12.8371 3.67875 14.9722 1.98082C13.4031 0.746016 11.4223 0 9.26133 0C4.14176 0 0 4.14176 0 9.26121C0 14.3805 4.14176 18.5224 9.26121 18.5224C11.4221 18.5224 13.403 17.7764 14.9722 16.5415C12.8371 14.8693 11.4479 12.2196 11.4479 9.26121Z" fill="#EB001B"/>
<path d="M29.9698 9.26121C29.9698 14.3805 25.828 18.5224 20.7086 18.5224C18.5476 18.5224 16.5668 17.7764 14.9976 16.5415C17.1585 14.8437 18.522 12.2196 18.522 9.26121C18.522 6.30281 17.1327 3.67875 14.9976 1.98082C16.5667 0.746016 18.5476 0 20.7086 0C25.828 0 29.9698 4.16754 29.9698 9.26121Z" fill="#F79E1B"/>
</g>
<defs>
<clipPath id="clip0_153_6507">
<rect width="30" height="23.3203" fill="white"/>
</clipPath>
</defs>
</svg>
