<svg width="83" height="42" viewBox="0 0 83 42" fill="none" xmlns="http://www.w3.org/2000/svg">
<rect width="83" height="42" fill="white"/>
<rect x="0.32" y="0.32" width="82.36" height="41.36" stroke="#001F3F" stroke-opacity="0.32" stroke-width="0.64"/>
<g clip-path="url(#clip0_153_6518)">
<path d="M60 21.955C60 19.3239 58.7255 17.2478 56.2897 17.2478C53.8435 17.2478 52.3635 19.324 52.3635 21.9345C52.3635 25.028 54.1109 26.5903 56.6185 26.5903C57.8416 26.5903 58.7666 26.3128 59.4655 25.9222V23.8666C58.7667 24.2161 57.965 24.432 56.9475 24.432C55.9505 24.432 55.0666 24.0825 54.9536 22.8697H59.9795C59.9795 22.736 60 22.2016 60 21.955ZM54.9228 20.9786C54.9228 19.8172 55.632 19.3341 56.2795 19.3341C56.9064 19.3341 57.5745 19.8172 57.5745 20.9786H54.9228ZM48.3965 17.2478C47.3891 17.2478 46.7416 17.7205 46.382 18.0495L46.2483 17.4122H43.9872V29.396L46.5566 28.8514L46.567 25.9428C46.937 26.21 47.4816 26.5903 48.3861 26.5903C50.2259 26.5903 51.9011 25.1103 51.9011 21.8522C51.8909 18.8716 50.195 17.2478 48.3964 17.2478M47.7797 24.3291C47.1733 24.3291 46.8135 24.1134 46.5669 23.8461L46.5566 20.033C46.8238 19.735 47.1938 19.5295 47.7797 19.5295C48.7149 19.5295 49.3624 20.5778 49.3624 21.9241C49.3624 23.3014 48.7252 24.3291 47.7797 24.3291ZM40.4516 16.6414L43.0314 16.0864V14L40.4516 14.5447V16.6414ZM40.4516 17.4225H43.0314V26.4155H40.4516V17.4225ZM37.687 18.183L37.5225 17.4225H35.3025V26.4155H37.872V20.3209C38.4783 19.5295 39.5061 19.6734 39.8247 19.7864V17.4225C39.4959 17.2991 38.2934 17.073 37.687 18.183ZM32.548 15.1922L30.0403 15.7266L30.03 23.9591C30.03 25.4803 31.1709 26.6005 32.692 26.6005C33.5347 26.6005 34.1514 26.4464 34.4905 26.2614V24.175C34.1617 24.3086 32.5378 24.7814 32.5378 23.2603V19.6116H34.4905V17.4225H32.5378L32.548 15.1922ZM25.6003 20.033C25.6003 19.6322 25.9291 19.478 26.474 19.478C27.255 19.478 28.2416 19.7145 29.0228 20.1359V17.7205C28.1697 17.3814 27.327 17.2478 26.474 17.2478C24.3875 17.2478 23 18.3372 23 20.1565C23 22.993 26.9055 22.5409 26.9055 23.764C26.9055 24.2366 26.4945 24.3909 25.9189 24.3909C25.0659 24.3909 23.9764 24.0414 23.113 23.5686V26.0147C24.0689 26.4259 25.035 26.6005 25.9189 26.6005C28.0566 26.6005 29.5264 25.542 29.5264 23.7022C29.5161 20.6395 25.6003 21.1841 25.6003 20.033Z" fill="#635BFF"/>
</g>
<defs>
<clipPath id="clip0_153_6518">
<rect width="37" height="15.4648" fill="white" transform="translate(23 14)"/>
</clipPath>
</defs>
</svg>
